<?xml version="1.0" encoding="UTF-8" standalone="no"?>
<!-- Created with Inkscape (http://www.inkscape.org/) -->

<svg
   xmlns:dc="http://purl.org/dc/elements/1.1/"
   xmlns:cc="http://creativecommons.org/ns#"
   xmlns:rdf="http://www.w3.org/1999/02/22-rdf-syntax-ns#"
   xmlns:svg="http://www.w3.org/2000/svg"
   xmlns="http://www.w3.org/2000/svg"
   xmlns:sodipodi="http://sodipodi.sourceforge.net/DTD/sodipodi-0.dtd"
   xmlns:inkscape="http://www.inkscape.org/namespaces/inkscape"
   width="210mm"
   height="297mm"
   viewBox="0 0 210 297"
   version="1.1"
   id="svg8"
   inkscape:version="0.92.3 (2405546, 2018-03-11)"
   sodipodi:docname="feascript-creeping-flow.svg"
   inkscape:export-filename="C:\Users\nchamakos\Documents\repos\FEAScript-workspace\FEAScript-website\assets\feascript-creeping-flow.png"
   inkscape:export-xdpi="600"
   inkscape:export-ydpi="600"
   xml:space="preserve"><defs
     id="defs2" /><sodipodi:namedview
     id="base"
     pagecolor="#ffffff"
     bordercolor="#666666"
     borderopacity="1.0"
     inkscape:pageopacity="0.0"
     inkscape:pageshadow="2"
     inkscape:zoom="2.8"
     inkscape:cx="407.24909"
     inkscape:cy="573.4308"
     inkscape:document-units="mm"
     inkscape:current-layer="g891"
     showgrid="false"
     inkscape:window-width="1920"
     inkscape:window-height="1009"
     inkscape:window-x="1912"
     inkscape:window-y="-8"
     inkscape:window-maximized="1"
     inkscape:showpageshadow="2"
     inkscape:pagecheckerboard="0"
     inkscape:deskcolor="#d1d1d1"
     showguides="false"><inkscape:page
       x="0"
       y="0"
       width="210"
       height="297"
       id="page1762" /><inkscape:page
       x="220"
       y="0"
       width="210"
       height="297"
       id="page1764" /></sodipodi:namedview><metadata
     id="metadata5"><rdf:RDF><cc:Work
         rdf:about=""><dc:format>image/svg+xml</dc:format><dc:type
           rdf:resource="http://purl.org/dc/dcmitype/StillImage" /><dc:title></dc:title></cc:Work></rdf:RDF></metadata><g
     inkscape:label="Layer 1"
     inkscape:groupmode="layer"
     id="layer1"><g
       id="g846"
       transform="translate(-212.70952,31.527665)"><g
         id="layer1-6"
         inkscape:label="Layer 1" /><rect
         rx="0"
         inkscape:export-ydpi="600"
         inkscape:export-xdpi="600"
         inkscape:export-filename=".\rect815.png"
         ry="0"
         y="101.0895"
         x="302.64981"
         height="30.920433"
         width="31.073141"
         id="rect815"
         style="opacity:1;fill:#4d4d4d;fill-opacity:1;stroke:none;stroke-width:0.131042;stroke-miterlimit:4;stroke-dasharray:0.262086, 0.131042;stroke-dashoffset:0;stroke-opacity:1" /><g
         id="flowRoot817"
         style="font-style:normal;font-weight:normal;font-size:40px;line-height:1.25;font-family:sans-serif;letter-spacing:0px;word-spacing:0px;fill:#d4aa00;fill-opacity:1;stroke:none"
         transform="matrix(0.26458332,0,0,0.26458334,248.4238,59.720239)"
         aria-label="CFDScript" /><flowRoot
         style="font-style:normal;font-weight:normal;font-size:40px;line-height:0;font-family:sans-serif;letter-spacing:0px;word-spacing:0px;fill:#000000;fill-opacity:1;stroke:none"
         id="flowRoot923"
         xml:space="preserve"
         transform="rotate(93.981613,312.1985,131.33134)"><flowRegion
           id="flowRegion925"><rect
             y="482.64963"
             x="268.38843"
             height="53.441486"
             width="147.32587"
             id="rect927" /></flowRegion><flowPara
           id="flowPara929" /></flowRoot><circle
         r="4.9444861"
         cy="116.54971"
         cx="318.24927"
         id="path851"
         style="opacity:1;fill:#d4aa00;fill-opacity:1;stroke:none;stroke-width:0.60000002;stroke-miterlimit:4;stroke-dasharray:none;stroke-dashoffset:0;stroke-opacity:1" /><g
         id="g891"
         transform="matrix(0.65934355,0,0,0.65934355,106.91943,42.193101)"><g
           id="g1088"
           transform="translate(-0.2068503,-0.08113373)"><g
             transform="translate(-0.18985467,1.0413243)"
             style="stroke-width:1.51665998;stroke-miterlimit:4;stroke-dasharray:none"
             id="g910"><path
               sodipodi:nodetypes="csssc"
               inkscape:connector-curvature="0"
               id="path857"
               d="m 317.81103,130.69055 c 0,0 0.20999,-3.40955 -0.86863,-6.01357 -0.67296,-1.62467 -1.9794,-2.41579 -3.70537,-3.91378 -1.04041,-0.90298 -1.99355,-1.99868 -2.0309,-3.87045 l -0.10134,-5.07923"
               style="fill:none;stroke:#d4aa00;stroke-width:1.51665998;stroke-linecap:round;stroke-linejoin:miter;stroke-miterlimit:4;stroke-dasharray:none;stroke-opacity:1" /><path
               sodipodi:nodetypes="csssc"
               inkscape:connector-curvature="0"
               id="path857-6"
               d="m 311.10479,111.81352 c 0,0 -0.20999,-3.40955 0.86863,-6.01357 0.67296,-1.62467 1.9794,-2.41579 3.70537,-3.91378 1.04041,-0.90298 1.99355,-1.99868 2.0309,-3.87045 l 0.10134,-5.07923"
               style="fill:none;stroke:#d4aa00;stroke-width:1.51665998;stroke-linecap:round;stroke-linejoin:miter;stroke-miterlimit:4;stroke-dasharray:none;stroke-opacity:1" /></g></g><g
           id="g1083"
           transform="translate(0.39757237,-0.08113373)"><g
             transform="matrix(-1,0,0,1,641.03014,1.0413243)"
             style="stroke-width:1.51665998;stroke-miterlimit:4;stroke-dasharray:none"
             id="g910-8"><path
               sodipodi:nodetypes="csssc"
               inkscape:connector-curvature="0"
               id="path857-5"
               d="m 317.81103,130.69055 c 0,0 0.20999,-3.40955 -0.86863,-6.01357 -0.67296,-1.62467 -1.9794,-2.41579 -3.70537,-3.91378 -1.04041,-0.90298 -1.99355,-1.99868 -2.0309,-3.87045 l -0.10134,-5.07923"
               style="fill:none;stroke:#d4aa00;stroke-width:1.51665998;stroke-linecap:round;stroke-linejoin:miter;stroke-miterlimit:4;stroke-dasharray:none;stroke-opacity:1" /><path
               sodipodi:nodetypes="csssc"
               inkscape:connector-curvature="0"
               id="path857-6-4"
               d="m 311.10479,111.81352 c 0,0 -0.20999,-3.40955 0.86863,-6.01357 0.67296,-1.62467 1.9794,-2.41579 3.70537,-3.91378 1.04041,-0.90298 1.99355,-1.99868 2.0309,-3.87045 l 0.10134,-5.07923"
               style="fill:none;stroke:#d4aa00;stroke-width:1.51665998;stroke-linecap:round;stroke-linejoin:miter;stroke-miterlimit:4;stroke-dasharray:none;stroke-opacity:1" /></g></g><g
           id="g1092"
           transform="translate(-0.50904938,-0.08113833)"><path
             style="fill:none;stroke:#d4aa00;stroke-width:1.51666009;stroke-linecap:round;stroke-linejoin:miter;stroke-miterlimit:4;stroke-dasharray:none;stroke-opacity:1"
             d="m 311.05805,134.8119 c 0,0 0.18425,-3.96586 -0.76215,-6.99476 -0.59047,-1.88975 -1.73677,-2.80996 -3.25117,-4.55236 -0.91288,-1.05031 -1.74919,-2.32479 -1.78196,-4.50196 l -0.0889,-5.90797"
             id="path857-7"
             inkscape:connector-curvature="0"
             sodipodi:nodetypes="csssc" /><path
             style="fill:none;stroke:#d4aa00;stroke-width:1.51666009;stroke-linecap:round;stroke-linejoin:miter;stroke-miterlimit:4;stroke-dasharray:none;stroke-opacity:1"
             d="m 305.17385,112.85485 c 0,0 -0.18425,-3.96587 0.76216,-6.99476 0.59047,-1.88976 1.73677,-2.80996 3.25117,-4.55237 0.91288,-1.05031 1.74918,-2.324786 1.78196,-4.501959 l 0.0889,-5.907971"
             id="path857-6-5"
             inkscape:connector-curvature="0"
             sodipodi:nodetypes="csssc" /></g><g
           id="g1096"
           transform="translate(0,-0.2717475)"><path
             style="fill:none;stroke:#d4aa00;stroke-width:1.51666009;stroke-linecap:round;stroke-linejoin:miter;stroke-miterlimit:4;stroke-dasharray:none;stroke-opacity:1"
             d="m 302.61827,135.00251 c 0,0 0.092,-3.96586 -0.38074,-6.99476 -0.29498,-1.88976 -0.86763,-2.80996 -1.62416,-4.55236 -0.45604,-1.05032 -0.87383,-2.32479 -0.89019,-4.50197 l -0.0445,-5.90797"
             id="path857-7-9"
             inkscape:connector-curvature="0"
             sodipodi:nodetypes="csssc" /><path
             style="fill:none;stroke:#d4aa00;stroke-width:1.51666009;stroke-linecap:round;stroke-linejoin:miter;stroke-miterlimit:4;stroke-dasharray:none;stroke-opacity:1"
             d="m 302.61827,91.088388 c 0,0 0.092,3.965858 -0.38074,6.994757 -0.29498,1.889756 -0.86763,2.809955 -1.62416,4.552365 -0.45604,1.05031 -0.87383,2.32479 -0.89019,4.50196 l -0.0445,5.90798"
             id="path857-7-9-6"
             inkscape:connector-curvature="0"
             sodipodi:nodetypes="csssc" /></g><g
           id="g1078"
           transform="translate(0.6997837,-0.08113369)"><g
             transform="matrix(-0.87742177,0,0,1.1631626,608.63654,-17.202459)"
             style="stroke-width:1.50128734;stroke-miterlimit:4;stroke-dasharray:none"
             id="g910-7-3"><path
               sodipodi:nodetypes="csssc"
               inkscape:connector-curvature="0"
               id="path857-7-0"
               d="m 317.81103,130.69055 c 0,0 0.20999,-3.40955 -0.86863,-6.01357 -0.67296,-1.62467 -1.9794,-2.41579 -3.70537,-3.91378 -1.04041,-0.90298 -1.99355,-1.99868 -2.0309,-3.87045 l -0.10134,-5.07923"
               style="fill:none;stroke:#d4aa00;stroke-width:1.50128734;stroke-linecap:round;stroke-linejoin:miter;stroke-miterlimit:4;stroke-dasharray:none;stroke-opacity:1" /><path
               sodipodi:nodetypes="csssc"
               inkscape:connector-curvature="0"
               id="path857-6-5-3"
               d="m 311.10479,111.81352 c 0,0 -0.20999,-3.40955 0.86863,-6.01357 0.67296,-1.62467 1.9794,-2.41579 3.70537,-3.91378 1.04041,-0.90298 1.99355,-1.99868 2.0309,-3.87045 l 0.10134,-5.07923"
               style="fill:none;stroke:#d4aa00;stroke-width:1.50128734;stroke-linecap:round;stroke-linejoin:miter;stroke-miterlimit:4;stroke-dasharray:none;stroke-opacity:1" /></g></g><g
           id="g1073"><path
             style="fill:none;stroke:#d4aa00;stroke-width:1.51666009;stroke-linecap:round;stroke-linejoin:miter;stroke-miterlimit:4;stroke-dasharray:none;stroke-opacity:1"
             d="m 338.41273,134.73076 c 0,0 -0.092,-3.96586 0.38074,-6.99476 0.29498,-1.88976 0.86763,-2.80996 1.62416,-4.55236 0.45604,-1.05032 0.87383,-2.32479 0.89019,-4.50197 l 0.0445,-5.90797"
             id="path857-7-9-5"
             inkscape:connector-curvature="0"
             sodipodi:nodetypes="csssc" /><path
             style="fill:none;stroke:#d4aa00;stroke-width:1.51666009;stroke-linecap:round;stroke-linejoin:miter;stroke-miterlimit:4;stroke-dasharray:none;stroke-opacity:1"
             d="m 338.41273,90.816643 c 0,0 -0.092,3.96586 0.38074,6.99476 0.29498,1.88975 0.86763,2.809947 1.62416,4.552357 0.45604,1.05031 0.87383,2.32479 0.89019,4.50196 l 0.0445,5.90798"
             id="path857-7-9-6-7"
             inkscape:connector-curvature="0"
             sodipodi:nodetypes="csssc" /></g></g></g></g></svg>