<?xml version="1.0" encoding="UTF-8" standalone="no"?>
<svg
   width="210mm"
   height="297mm"
   viewBox="0 0 210 297"
   version="1.1"
   id="svg8"
   inkscape:version="1.4.1 (unknown)"
   sodipodi:docname="feascript-studio-logo.svg"
   inkscape:export-filename="feascript-studio-logo.png"
   inkscape:export-xdpi="600"
   inkscape:export-ydpi="600"
   xmlns:inkscape="http://www.inkscape.org/namespaces/inkscape"
   xmlns:sodipodi="http://sodipodi.sourceforge.net/DTD/sodipodi-0.dtd"
   xmlns="http://www.w3.org/2000/svg"
   xmlns:svg="http://www.w3.org/2000/svg"
   xmlns:rdf="http://www.w3.org/1999/02/22-rdf-syntax-ns#"
   xmlns:cc="http://creativecommons.org/ns#"
   xmlns:dc="http://purl.org/dc/elements/1.1/">
  <defs
     id="defs2">
    <rect
       x="278.00801"
       y="128.45132"
       width="48.621103"
       height="14.554343"
       id="rect920" />
    <meshgradient
       inkscape:collect="always"
       id="meshgradient1002"
       gradientUnits="userSpaceOnUse"
       x="341.86719"
       y="447.19684">
      <meshrow
         id="meshrow1004">
        <meshpatch
           id="meshpatch1006">
          <stop
             path="c 39.9943,0  79.9886,0  119.983,0"
             style="stop-color:#000000;stop-opacity:1"
             id="stop1008" />
          <stop
             path="c 0,10.1302  0,20.2604  0,30.3906"
             style="stop-color:#ffffff;stop-opacity:1"
             id="stop1010" />
          <stop
             path="c -39.9943,0  -79.9886,0  -119.983,0"
             style="stop-color:#000000;stop-opacity:1"
             id="stop1012" />
          <stop
             path="c 0,-10.1302  0,-20.2604  0,-30.3906"
             style="stop-color:#ffffff;stop-opacity:1"
             id="stop1014" />
        </meshpatch>
      </meshrow>
    </meshgradient>
    <clipPath
       clipPathUnits="userSpaceOnUse"
       id="clipPath5872">
      <g
         id="g5878">
        <g
           id="g5876"
           transform="translate(190.54431,0.5332456)">
          <path
             id="path5874"
             style="fill:#ffffff;fill-opacity:1;stroke:none;stroke-width:0.00535715;stroke-linecap:round;stroke-linejoin:bevel;stroke-opacity:1"
             class="powerclip"
             d="m 297.17294,96.611302 h 82.08775 v 40.920438 h -82.08775 z m 38.23473,23.994288 c 0.34262,0.0946 1.13317,-0.42037 2.10309,-1.36989 l 0.22775,-0.22296 v -1.93945 -1.93945 l -0.23919,-0.23589 c -0.70828,-0.69853 -1.36523,-1.18944 -1.77471,-1.32617 -0.2561,-0.0855 -0.40675,-0.0512 -0.48755,0.11093 -0.20757,0.41676 -0.30597,1.90394 -0.27277,4.1223 0.0177,1.18515 0.0804,1.96983 0.193,2.41611 0.0675,0.26744 0.12029,0.34857 0.25038,0.38447 z" />
        </g>
      </g>
    </clipPath>
    <clipPath
       clipPathUnits="userSpaceOnUse"
       id="clipPath5864">
      <g
         id="g5870">
        <g
           id="g5868"
           transform="translate(190.54431,0.5332456)">
          <path
             id="path5866"
             style="fill:#ffffff;fill-opacity:1;stroke:none;stroke-width:0.00535715;stroke-linecap:round;stroke-linejoin:bevel;stroke-opacity:1"
             class="powerclip"
             d="m 297.17294,96.611302 h 82.08775 v 40.920438 h -82.08775 z m 38.23473,23.994288 c 0.34262,0.0946 1.13317,-0.42037 2.10309,-1.36989 l 0.22775,-0.22296 v -1.93945 -1.93945 l -0.23919,-0.23589 c -0.70828,-0.69853 -1.36523,-1.18944 -1.77471,-1.32617 -0.2561,-0.0855 -0.40675,-0.0512 -0.48755,0.11093 -0.20757,0.41676 -0.30597,1.90394 -0.27277,4.1223 0.0177,1.18515 0.0804,1.96983 0.193,2.41611 0.0675,0.26744 0.12029,0.34857 0.25038,0.38447 z" />
        </g>
      </g>
    </clipPath>
    <clipPath
       clipPathUnits="userSpaceOnUse"
       id="clipPath5856">
      <g
         id="g5862">
        <g
           id="g5860"
           transform="translate(190.54431,0.5332456)">
          <path
             id="path5858"
             style="fill:#ffffff;fill-opacity:1;stroke:none;stroke-width:0.00535715;stroke-linecap:round;stroke-linejoin:bevel;stroke-opacity:1"
             class="powerclip"
             d="m 297.17294,96.611302 h 82.08775 v 40.920438 h -82.08775 z m 38.23473,23.994288 c 0.34262,0.0946 1.13317,-0.42037 2.10309,-1.36989 l 0.22775,-0.22296 v -1.93945 -1.93945 l -0.23919,-0.23589 c -0.70828,-0.69853 -1.36523,-1.18944 -1.77471,-1.32617 -0.2561,-0.0855 -0.40675,-0.0512 -0.48755,0.11093 -0.20757,0.41676 -0.30597,1.90394 -0.27277,4.1223 0.0177,1.18515 0.0804,1.96983 0.193,2.41611 0.0675,0.26744 0.12029,0.34857 0.25038,0.38447 z" />
        </g>
      </g>
    </clipPath>
    <clipPath
       clipPathUnits="userSpaceOnUse"
       id="clipPath5848">
      <g
         id="g5854">
        <g
           id="g5852"
           transform="translate(190.54431,0.5332456)">
          <path
             id="path5850"
             style="fill:#ffffff;fill-opacity:1;stroke:none;stroke-width:0.00535715;stroke-linecap:round;stroke-linejoin:bevel;stroke-opacity:1"
             class="powerclip"
             d="m 297.17294,96.611302 h 82.08775 v 40.920438 h -82.08775 z m 38.23473,23.994288 c 0.34262,0.0946 1.13317,-0.42037 2.10309,-1.36989 l 0.22775,-0.22296 v -1.93945 -1.93945 l -0.23919,-0.23589 c -0.70828,-0.69853 -1.36523,-1.18944 -1.77471,-1.32617 -0.2561,-0.0855 -0.40675,-0.0512 -0.48755,0.11093 -0.20757,0.41676 -0.30597,1.90394 -0.27277,4.1223 0.0177,1.18515 0.0804,1.96983 0.193,2.41611 0.0675,0.26744 0.12029,0.34857 0.25038,0.38447 z" />
        </g>
      </g>
    </clipPath>
    <clipPath
       clipPathUnits="userSpaceOnUse"
       id="clipPath5840">
      <g
         id="g5846">
        <g
           id="g5844"
           transform="translate(190.54431,0.5332456)">
          <path
             id="path5842"
             style="fill:#ffffff;fill-opacity:1;stroke:none;stroke-width:0.00535715;stroke-linecap:round;stroke-linejoin:bevel;stroke-opacity:1"
             class="powerclip"
             d="m 297.17294,96.611302 h 82.08775 v 40.920438 h -82.08775 z m 38.23473,23.994288 c 0.34262,0.0946 1.13317,-0.42037 2.10309,-1.36989 l 0.22775,-0.22296 v -1.93945 -1.93945 l -0.23919,-0.23589 c -0.70828,-0.69853 -1.36523,-1.18944 -1.77471,-1.32617 -0.2561,-0.0855 -0.40675,-0.0512 -0.48755,0.11093 -0.20757,0.41676 -0.30597,1.90394 -0.27277,4.1223 0.0177,1.18515 0.0804,1.96983 0.193,2.41611 0.0675,0.26744 0.12029,0.34857 0.25038,0.38447 z" />
        </g>
      </g>
    </clipPath>
    <clipPath
       clipPathUnits="userSpaceOnUse"
       id="clipPath5832">
      <g
         id="g5838">
        <g
           id="g5836"
           transform="translate(190.54431,0.5332456)">
          <path
             id="path5834"
             style="fill:#ffffff;fill-opacity:1;stroke:none;stroke-width:0.00535715;stroke-linecap:round;stroke-linejoin:bevel;stroke-opacity:1"
             class="powerclip"
             d="m 297.17294,96.611302 h 82.08775 v 40.920438 h -82.08775 z m 38.23473,23.994288 c 0.34262,0.0946 1.13317,-0.42037 2.10309,-1.36989 l 0.22775,-0.22296 v -1.93945 -1.93945 l -0.23919,-0.23589 c -0.70828,-0.69853 -1.36523,-1.18944 -1.77471,-1.32617 -0.2561,-0.0855 -0.40675,-0.0512 -0.48755,0.11093 -0.20757,0.41676 -0.30597,1.90394 -0.27277,4.1223 0.0177,1.18515 0.0804,1.96983 0.193,2.41611 0.0675,0.26744 0.12029,0.34857 0.25038,0.38447 z" />
        </g>
      </g>
    </clipPath>
    <clipPath
       clipPathUnits="userSpaceOnUse"
       id="clipPath5824">
      <g
         id="g5830">
        <g
           id="g5828"
           transform="translate(190.54431,0.5332456)">
          <path
             id="path5826"
             style="fill:#ffffff;fill-opacity:1;stroke:none;stroke-width:0.00535715;stroke-linecap:round;stroke-linejoin:bevel;stroke-opacity:1"
             class="powerclip"
             d="m 297.17294,96.611302 h 82.08775 v 40.920438 h -82.08775 z m 38.23473,23.994288 c 0.34262,0.0946 1.13317,-0.42037 2.10309,-1.36989 l 0.22775,-0.22296 v -1.93945 -1.93945 l -0.23919,-0.23589 c -0.70828,-0.69853 -1.36523,-1.18944 -1.77471,-1.32617 -0.2561,-0.0855 -0.40675,-0.0512 -0.48755,0.11093 -0.20757,0.41676 -0.30597,1.90394 -0.27277,4.1223 0.0177,1.18515 0.0804,1.96983 0.193,2.41611 0.0675,0.26744 0.12029,0.34857 0.25038,0.38447 z" />
        </g>
      </g>
    </clipPath>
    <clipPath
       clipPathUnits="userSpaceOnUse"
       id="clipPath5816">
      <g
         id="g5822">
        <g
           id="g5820"
           transform="translate(190.54431,0.5332456)">
          <path
             id="path5818"
             style="fill:#ffffff;fill-opacity:1;stroke:none;stroke-width:0.00535715;stroke-linecap:round;stroke-linejoin:bevel;stroke-opacity:1"
             class="powerclip"
             d="m 297.17294,96.611302 h 82.08775 v 40.920438 h -82.08775 z m 38.23473,23.994288 c 0.34262,0.0946 1.13317,-0.42037 2.10309,-1.36989 l 0.22775,-0.22296 v -1.93945 -1.93945 l -0.23919,-0.23589 c -0.70828,-0.69853 -1.36523,-1.18944 -1.77471,-1.32617 -0.2561,-0.0855 -0.40675,-0.0512 -0.48755,0.11093 -0.20757,0.41676 -0.30597,1.90394 -0.27277,4.1223 0.0177,1.18515 0.0804,1.96983 0.193,2.41611 0.0675,0.26744 0.12029,0.34857 0.25038,0.38447 z" />
        </g>
      </g>
    </clipPath>
  </defs>
  <sodipodi:namedview
     id="base"
     pagecolor="#ffffff"
     bordercolor="#666666"
     borderopacity="1.0"
     inkscape:pageopacity="0.0"
     inkscape:pageshadow="2"
     inkscape:zoom="2.8"
     inkscape:cx="399.10714"
     inkscape:cy="581.60714"
     inkscape:document-units="mm"
     inkscape:current-layer="g984"
     showgrid="false"
     inkscape:window-width="1920"
     inkscape:window-height="1008"
     inkscape:window-x="0"
     inkscape:window-y="0"
     inkscape:window-maximized="1"
     inkscape:document-rotation="0"
     inkscape:showpageshadow="2"
     inkscape:pagecheckerboard="0"
     inkscape:deskcolor="#d1d1d1" />
  <metadata
     id="metadata5">
    <rdf:RDF>
      <cc:Work
         rdf:about="">
        <dc:format>image/svg+xml</dc:format>
        <dc:type
           rdf:resource="http://purl.org/dc/dcmitype/StillImage" />
        <dc:title />
      </cc:Work>
    </rdf:RDF>
  </metadata>
  <g
     inkscape:label="Layer 1"
     inkscape:groupmode="layer"
     id="layer1">
    <g
       id="g846"
       transform="translate(-212.70952,31.527665)">
      <g
         id="layer1-6"
         inkscape:label="Layer 1" />
      <g
         id="flowRoot817"
         style="font-style:normal;font-weight:normal;font-size:40px;line-height:1.25;font-family:sans-serif;letter-spacing:0px;word-spacing:0px;fill:#d4aa00;fill-opacity:1;stroke:none"
         transform="matrix(0.26458332,0,0,0.26458334,248.4238,59.720239)"
         aria-label="CFDScript" />
      <g
         id="g861"
         transform="matrix(0.88622601,0,0,0.88622601,54.41151,9.3870279)">
        <g
           id="g916"
           transform="translate(0.22618626,-0.03222431)">
          <g
             id="g966">
            <rect
               rx="0"
               inkscape:export-ydpi="600"
               inkscape:export-xdpi="600"
               inkscape:export-filename="feascript-studio-logo.png"
               ry="0"
               y="101.51212"
               x="302.17294"
               height="30.920433"
               width="31.073141"
               id="rect815"
               style="opacity:1;fill:#4d4d4d;fill-opacity:1;stroke:none;stroke-width:0.131042;stroke-miterlimit:4;stroke-dasharray:0.262086, 0.13104199999999999;stroke-dashoffset:0;stroke-opacity:1"
               transform="matrix(1.1283803,0,0,1.1283803,-61.623063,-10.559913)" />
            <g
               id="g984"
               transform="translate(-0.4523815,0.43979787)">
              <rect
                 style="fill:#0084d4;fill-opacity:1;stroke:none;stroke-width:0.0482657;stroke-linecap:round;stroke-linejoin:bevel;stroke-opacity:1"
                 id="rect5582-6"
                 width="9.5233898"
                 height="8.2992535"
                 x="293.08499"
                 y="128.52109" />
              <rect
                 style="fill:#00d48c;fill-opacity:1;stroke:none;stroke-width:0.0545944;stroke-linecap:round;stroke-linejoin:bevel;stroke-opacity:1"
                 id="rect5582-6-8"
                 width="9.5233898"
                 height="10.618353"
                 x="283.56161"
                 y="126.20199" />
              <rect
                 style="fill:#d4004e;fill-opacity:1;stroke:none;stroke-width:0.0386946;stroke-linecap:round;stroke-linejoin:bevel;stroke-opacity:1"
                 id="rect5582-6-26"
                 width="8.4362316"
                 height="6.0214648"
                 x="302.60837"
                 y="130.79887" />
              <g
                 id="g5947">
                <g
                   id="g898"
                   transform="translate(0,-1.1942025)">
                  <flowRoot
                     transform="matrix(0.26458333,0,0,0.26458333,202.82055,-9.2647109)"
                     style="font-style:normal;font-weight:normal;font-size:40px;line-height:0;font-family:sans-serif;letter-spacing:0px;word-spacing:0px;fill:#d4aa00;fill-opacity:1;stroke:none"
                     id="flowRoot848"
                     xml:space="preserve"><flowRegion
                       style="fill:#d4aa00;fill-opacity:1"
                       id="flowRegion850"><rect
                         style="fill:#d4aa00;fill-opacity:1"
                         y="465.41547"
                         x="340.42142"
                         height="110.10663"
                         width="220.21326"
                         id="rect852" /></flowRegion><flowPara
                       id="flowPara854"
                       style="font-style:normal;font-variant:normal;font-weight:normal;font-stretch:normal;font-size:40px;font-family:Roboto;-inkscape-font-specification:Roboto">FEA</flowPara></flowRoot>
                  <path
                     inkscape:connector-curvature="0"
                     d="m 287.14727,123.28476 q -1.27641,-0.3669 -1.86036,-0.89917 -0.57877,-0.53743 -0.57877,-1.32291 0,-0.88884 0.70797,-1.46761 0.71313,-0.58395 1.85001,-0.58395 0.77515,0 1.37976,0.29973 0.60978,0.29972 0.94051,0.82682 0.3359,0.5271 0.3359,1.15238 h -0.99735 q 0,-0.68212 -0.43409,-1.0697 -0.43408,-0.39274 -1.22473,-0.39274 -0.7338,0 -1.14721,0.32556 -0.40825,0.32039 -0.40825,0.894 0,0.45992 0.38758,0.78032 0.39274,0.31522 1.32808,0.57877 0.94051,0.26356 1.46761,0.58395 0.53227,0.31522 0.78548,0.73897 0.25838,0.42375 0.25838,0.99736 0,0.91467 -0.71313,1.46761 -0.71314,0.54777 -1.90686,0.54777 -0.77515,0 -1.44694,-0.29456 -0.67179,-0.29972 -1.0387,-0.81649 -0.36173,-0.51676 -0.36173,-1.17305 h 0.99735 q 0,0.68213 0.50127,1.08004 0.50642,0.39274 1.34875,0.39274 0.78548,0 1.20406,-0.3204 0.41858,-0.32039 0.41858,-0.87333 0,-0.55294 -0.38757,-0.85266 -0.38758,-0.30489 -1.4056,-0.59945 z"
                     style="font-style:normal;font-variant:normal;font-weight:normal;font-stretch:normal;font-size:40px;line-height:1.25;font-family:Roboto;-inkscape-font-specification:Roboto;letter-spacing:0px;word-spacing:0px;fill:#d4aa00;fill-opacity:1;stroke:none;stroke-width:0.264583"
                     id="path837" />
                  <path
                     inkscape:connector-curvature="0"
                     d="m 293.3071,125.9616 q 0.51159,0 0.894,-0.31005 0.38241,-0.31006 0.42375,-0.77515 h 0.90433 q -0.0258,0.48059 -0.33072,0.91467 -0.3049,0.43408 -0.81649,0.69247 -0.50643,0.25838 -1.07487,0.25838 -1.14205,0 -1.81901,-0.75965 -0.6718,-0.76481 -0.6718,-2.08772 v -0.1602 q 0,-0.81649 0.29973,-1.45211 0.29972,-0.63562 0.85783,-0.98702 0.56327,-0.3514 1.32808,-0.3514 0.94051,0 1.56063,0.56327 0.62528,0.56328 0.66662,1.46245 h -0.90433 q -0.0413,-0.5426 -0.41342,-0.88884 -0.3669,-0.3514 -0.9095,-0.3514 -0.72864,0 -1.13171,0.5271 -0.39791,0.52193 -0.39791,1.51412 v 0.18087 q 0,0.96635 0.39791,1.48828 0.3979,0.52193 1.13688,0.52193 z"
                     style="font-style:normal;font-variant:normal;font-weight:normal;font-stretch:normal;font-size:40px;line-height:1.25;font-family:Roboto;-inkscape-font-specification:Roboto;letter-spacing:0px;word-spacing:0px;fill:#d4aa00;fill-opacity:1;stroke:none;stroke-width:0.264583"
                     id="path839" />
                  <path
                     inkscape:connector-curvature="0"
                     d="m 299.30673,121.905 q -0.21704,-0.0362 -0.47025,-0.0362 -0.94052,0 -1.27641,0.80099 v 3.96875 h -0.95602 v -5.5914 h 0.93018 l 0.0155,0.64596 q 0.47026,-0.74931 1.33325,-0.74931 0.27906,0 0.42375,0.0724 z"
                     style="font-style:normal;font-variant:normal;font-weight:normal;font-stretch:normal;font-size:40px;line-height:1.25;font-family:Roboto;-inkscape-font-specification:Roboto;letter-spacing:0px;word-spacing:0px;fill:#d4aa00;fill-opacity:1;stroke:none;stroke-width:0.264583"
                     id="path841" />
                  <path
                     inkscape:connector-curvature="0"
                     d="m 301.21876,126.63857 h -0.95602 v -5.5914 h 0.95602 z m -1.03353,-7.07451 q 0,-0.23254 0.13953,-0.39274 0.14469,-0.1602 0.42374,-0.1602 0.27906,0 0.42375,0.1602 0.14469,0.1602 0.14469,0.39274 0,0.23254 -0.14469,0.38757 -0.14469,0.15503 -0.42375,0.15503 -0.27905,0 -0.42374,-0.15503 -0.13953,-0.15503 -0.13953,-0.38757 z"
                     style="font-style:normal;font-variant:normal;font-weight:normal;font-stretch:normal;font-size:40px;line-height:1.25;font-family:Roboto;-inkscape-font-specification:Roboto;letter-spacing:0px;word-spacing:0px;fill:#d4aa00;fill-opacity:1;stroke:none;stroke-width:0.264583"
                     id="path843" />
                  <path
                     inkscape:connector-curvature="0"
                     d="m 307.46644,123.90488 q 0,1.27641 -0.58395,2.05672 -0.58394,0.78032 -1.58129,0.78032 -1.01803,0 -1.60197,-0.64596 v 2.69234 h -0.95602 v -7.74113 h 0.87333 l 0.0465,0.62012 q 0.58394,-0.72347 1.62263,-0.72347 1.00769,0 1.59164,0.75964 0.58911,0.75965 0.58911,2.11357 z m -0.95602,-0.10852 q 0,-0.94568 -0.40307,-1.49345 -0.40308,-0.54777 -1.10588,-0.54777 -0.86816,0 -1.30224,0.76998 v 2.67167 q 0.42891,0.76481 1.31258,0.76481 0.6873,0 1.09037,-0.5426 0.40824,-0.54777 0.40824,-1.62264 z"
                     style="font-style:normal;font-variant:normal;font-weight:normal;font-stretch:normal;font-size:40px;line-height:1.25;font-family:Roboto;-inkscape-font-specification:Roboto;letter-spacing:0px;word-spacing:0px;fill:#d4aa00;fill-opacity:1;stroke:none;stroke-width:0.264583"
                     id="path845" />
                  <path
                     d="m 309.97275,119.69325 v 1.35392 h 1.04386 v 0.73898 h -1.04386 v 8.41197 c 0,0.22393 0.0465,0.39274 0.13952,0.50643 0.093,0.11024 0.2515,0.16536 0.47543,0.16536 0.11024,0 0.26182,-0.0207 0.45475,-0.062 v 0.77515 c -0.25149,0.0689 -0.4961,0.10335 -0.73381,0.10335 -0.42719,0 -0.74931,-0.12919 -0.96635,-0.38757 -0.21704,-0.25838 -0.32556,-0.62528 -0.32556,-1.10071 v -8.41197 h -1.01802 v -0.73898 h 1.01802 v -1.35392 z"
                     style="font-style:normal;font-variant:normal;font-weight:normal;font-stretch:normal;font-size:40px;line-height:1.25;font-family:Roboto;-inkscape-font-specification:Roboto;letter-spacing:0px;word-spacing:0px;fill:#d4aa00;fill-opacity:1;stroke:none;stroke-width:0.264583"
                     id="path847"
                     inkscape:connector-curvature="0"
                     sodipodi:nodetypes="cccccscsccscscccccc" />
                  <path
                     sodipodi:type="star"
                     style="opacity:1;fill:#d4aa00;fill-opacity:1;stroke:none;stroke-width:0.362135;stroke-miterlimit:4;stroke-dasharray:0.724271, 0.362135;stroke-dashoffset:0;stroke-opacity:1"
                     id="path829"
                     sodipodi:sides="3"
                     sodipodi:cx="288.92731"
                     sodipodi:cy="113.40007"
                     sodipodi:r1="6.003962"
                     sodipodi:r2="3.0019815"
                     sodipodi:arg1="0.78539816"
                     sodipodi:arg2="1.8325957"
                     inkscape:flatsided="true"
                     inkscape:rounded="0"
                     inkscape:randomized="0"
                     inkscape:transform-center-x="0.77696847"
                     inkscape:transform-center-y="-0.77697015"
                     d="m 293.17275,117.64551 -10.04482,-2.6915 7.35332,-7.35332 z" />
                </g>
                <g
                   aria-label="Studio"
                   transform="matrix(0.2047413,0,0,0.2047413,215.04941,37.790782)"
                   id="flowRoot848-3"
                   style="font-style:normal;font-weight:normal;font-size:40px;line-height:0;font-family:sans-serif;letter-spacing:1.53565px;word-spacing:0px;fill:url(#meshgradient1002);fill-opacity:1;stroke:none">
                  <path
                     d="m 358.17578,469.85309 q 0,-1.71875 -1.19141,-2.75391 -1.17187,-1.05469 -4.88281,-2.1875 -4.0625,-1.23047 -6.69922,-3.20312 -2.63672,-1.97266 -2.63672,-5.46875 0,-3.4375 2.77344,-5.64453 2.79297,-2.22657 7.30469,-2.22657 4.82422,0 7.53906,2.57813 2.71485,2.55859 2.71485,6.11328 h -4.92188 q 0,-2.08984 -1.30859,-3.41797 -1.3086,-1.34766 -4.08203,-1.34766 -2.59766,0 -3.84766,1.13282 -1.23047,1.11328 -1.23047,2.79297 0,1.60156 1.48438,2.65625 1.5039,1.05468 4.55078,1.93359 4.78515,1.40625 7.07031,3.51562 2.30469,2.10938 2.30469,5.48829 0,3.59375 -2.75391,5.68359 -2.73437,2.08984 -7.36328,2.08984 -2.73438,0 -5.29297,-0.99609 -2.53906,-0.99609 -4.19922,-2.98828 -1.64062,-1.99219 -1.64062,-5 h 4.9414 q 0,2.69531 1.77735,3.88672 1.79687,1.1914 4.41406,1.1914 2.57812,0 3.86719,-1.05468 1.30859,-1.05469 1.30859,-2.77344 z"
                     style="font-style:normal;font-variant:normal;font-weight:500;font-stretch:normal;font-size:40px;font-family:Roboto;-inkscape-font-specification:'Roboto Medium';fill:#ffffff;fill-opacity:1;stroke:none"
                     id="path3035" />
                  <path
                     d="m 379.14495,477.11871 c -0.37761,0.13022 -0.82032,0.24089 -1.32813,0.33203 -0.50781,0.0911 -1.10677,0.13672 -1.79687,0.13672 -1.57553,0 -2.88412,-0.4427 -3.92579,-1.32812 -1.02864,-0.89844 -1.54296,-2.4349 -1.54296,-4.60938 v -21.72427 h -3.4961 v -3.49609 h 3.4961 v -5.13672 h 4.72656 v 5.13672 h 3.73047 v 3.49609 h -3.73047 v 21.45084 c 0,0.95052 0.20182,1.56901 0.60547,1.85546 0.41667,0.27344 0.95052,0.41016 1.60156,0.41016 0.3125,0 0.625,-0.0195 0.9375,-0.0586 0.3125,-0.0521 0.55339,-0.0976 0.72266,-0.13672 z"
                     style="font-style:normal;font-variant:normal;font-weight:500;font-stretch:normal;font-size:40px;font-family:Roboto;-inkscape-font-specification:'Roboto Medium';fill:#ffffff;fill-opacity:1;stroke:none"
                     id="path3037"
                     sodipodi:nodetypes="csscsccccccccccscsccc" />
                  <path
                     d="m 396.32521,477.19684 -0.11719,-2.07031 q -2.07031,2.46093 -5.9375,2.46093 -3.10547,0 -5.03906,-1.83593 -1.9336,-1.83594 -1.9336,-6.03516 v -13.65234 h 4.7461 v 13.6914 q 0,2.28516 0.99609,3.125 1.01563,0.82031 2.36328,0.82031 1.81641,0 2.94922,-0.66406 1.13281,-0.66406 1.69922,-1.77734 v -15.19531 h 4.74609 v 21.13281 z"
                     style="font-style:normal;font-variant:normal;font-weight:500;font-stretch:normal;font-size:40px;font-family:Roboto;-inkscape-font-specification:'Roboto Medium';fill:#ffffff;fill-opacity:1;stroke:none"
                     id="path3039" />
                  <path
                     d="m 420.49757,477.19684 -0.21484,-2.1875 q -2.10937,2.57812 -5.68359,2.57812 -3.8086,0 -6.05469,-3.04687 -2.24609,-3.06641 -2.24609,-7.67578 v -0.41016 q 0,-4.82422 2.22656,-7.79297 2.24609,-2.98828 6.11328,-2.98828 3.35937,0 5.42969,2.32422 v -10.80078 h 4.74609 v 30 z m -9.47265,-10.33203 q 0,2.83203 1.11328,4.84375 1.11328,1.99218 3.67187,1.99218 1.60157,0 2.61719,-0.72265 1.03516,-0.72266 1.64063,-1.89453 v -9.00391 q -0.60547,-1.15234 -1.64063,-1.83594 -1.03515,-0.70312 -2.57812,-0.70312 -2.57813,0 -3.71094,2.03125 -1.11328,2.03125 -1.11328,4.88281 z"
                     style="font-style:normal;font-variant:normal;font-weight:500;font-stretch:normal;font-size:40px;font-family:Roboto;-inkscape-font-specification:'Roboto Medium';fill:#ffffff;fill-opacity:1;stroke:none"
                     id="path3041" />
                  <path
                     d="m 436.34963,456.06403 v 21.13281 h -4.74609 v -21.13281 z"
                     style="font-style:normal;font-variant:normal;font-weight:500;font-stretch:normal;font-size:40px;font-family:Roboto;-inkscape-font-specification:'Roboto Medium';fill:#ffffff;fill-opacity:1;stroke:none"
                     id="path3043"
                     sodipodi:nodetypes="ccccc" />
                  <path
                     d="m 442.20169,466.84528 v -0.41016 q 0,-4.58984 2.59766,-7.67578 2.59765,-3.08594 7.20703,-3.08594 4.64844,0 7.24609,3.08594 2.59766,3.08594 2.59766,7.67578 v 0.41016 q 0,4.60937 -2.59766,7.67578 -2.57812,3.0664 -7.20703,3.0664 -4.64844,0 -7.24609,-3.0664 -2.59766,-3.06641 -2.59766,-7.67578 z m 4.72656,-0.41016 v 0.41016 q 0,2.85156 1.21094,4.90234 1.23047,2.03125 3.90625,2.03125 2.61719,0 3.82813,-2.03125 1.23046,-2.05078 1.23046,-4.90234 v -0.41016 q 0,-2.79297 -1.23046,-4.86328 -1.21094,-2.08985 -3.86719,-2.08985 -2.63672,0 -3.86719,2.08985 -1.21094,2.07031 -1.21094,4.86328 z"
                     style="font-style:normal;font-variant:normal;font-weight:500;font-stretch:normal;font-size:40px;font-family:Roboto;-inkscape-font-specification:'Roboto Medium';fill:#ffffff;fill-opacity:1;stroke:none"
                     id="path3045" />
                </g>
                <path
                   sodipodi:type="star"
                   style="opacity:1;fill:#d4aa00;fill-opacity:1;stroke:none;stroke-width:0.0712934;stroke-miterlimit:4;stroke-dasharray:0.142587, 0.0712934;stroke-dashoffset:0;stroke-opacity:1"
                   id="path829-5"
                   sodipodi:sides="3"
                   sodipodi:cx="303.9451"
                   sodipodi:cy="129.95369"
                   sodipodi:r1="1.1819938"
                   sodipodi:r2="0.59099704"
                   sodipodi:arg1="0.78539816"
                   sodipodi:arg2="1.8325957"
                   inkscape:flatsided="true"
                   inkscape:rounded="0"
                   inkscape:randomized="0"
                   inkscape:transform-center-x="0.0033748267"
                   inkscape:transform-center-y="0.16920354"
                   d="m 304.78089,130.78949 -1.97751,-0.52988 1.44764,-1.44764 z"
                   transform="matrix(0.51690885,0.50825016,-0.50825016,0.51690885,212.84682,-91.961207)" />
              </g>
            </g>
          </g>
          <text
             xml:space="preserve"
             id="text918"
             style="font-style:normal;font-weight:normal;font-size:11.942px;line-height:1.25;font-family:sans-serif;white-space:pre;shape-inside:url(#rect920);display:inline;fill:#000000;fill-opacity:1;stroke:none" />
        </g>
      </g>
      <flowRoot
         xml:space="preserve"
         id="flowRoot923"
         style="font-style:normal;font-weight:normal;font-size:40px;line-height:0;font-family:sans-serif;letter-spacing:0px;word-spacing:0px;fill:#000000;fill-opacity:1;stroke:none"
         transform="translate(19.73709,-4.4625128)"><flowRegion
           id="flowRegion925"><rect
             id="rect927"
             width="147.32587"
             height="53.441486"
             x="268.38843"
             y="482.64963" /></flowRegion><flowPara
           id="flowPara929" /></flowRoot>
    </g>
  </g>
  <script
     id="mesh_polyfill"
     type="text/javascript">
!function(){const t=&quot;http://www.w3.org/2000/svg&quot;,e=&quot;http://www.w3.org/1999/xlink&quot;,s=&quot;http://www.w3.org/1999/xhtml&quot;,r=2;if(document.createElementNS(t,&quot;meshgradient&quot;).x)return;const n=(t,e,s,r)=&gt;{let n=new x(.5*(e.x+s.x),.5*(e.y+s.y)),o=new x(.5*(t.x+e.x),.5*(t.y+e.y)),i=new x(.5*(s.x+r.x),.5*(s.y+r.y)),a=new x(.5*(n.x+o.x),.5*(n.y+o.y)),h=new x(.5*(n.x+i.x),.5*(n.y+i.y)),l=new x(.5*(a.x+h.x),.5*(a.y+h.y));return[[t,o,a,l],[l,h,i,r]]},o=t=&gt;{let e=t[0].distSquared(t[1]),s=t[2].distSquared(t[3]),r=.25*t[0].distSquared(t[2]),n=.25*t[1].distSquared(t[3]),o=e&gt;s?e:s,i=r&gt;n?r:n;return 18*(o&gt;i?o:i)},i=(t,e)=&gt;Math.sqrt(t.distSquared(e)),a=(t,e)=&gt;t.scale(2/3).add(e.scale(1/3)),h=t=&gt;{let e,s,r,n,o,i,a,h=new g;return t.match(/(\w+\(\s*[^)]+\))+/g).forEach(t=&gt;{let l=t.match(/[\w.-]+/g),d=l.shift();switch(d){case&quot;translate&quot;:2===l.length?e=new g(1,0,0,1,l[0],l[1]):(console.error(&quot;mesh.js: translate does not have 2 arguments!&quot;),e=new g(1,0,0,1,0,0)),h=h.append(e);break;case&quot;scale&quot;:1===l.length?s=new g(l[0],0,0,l[0],0,0):2===l.length?s=new g(l[0],0,0,l[1],0,0):(console.error(&quot;mesh.js: scale does not have 1 or 2 arguments!&quot;),s=new g(1,0,0,1,0,0)),h=h.append(s);break;case&quot;rotate&quot;:if(3===l.length&amp;&amp;(e=new g(1,0,0,1,l[1],l[2]),h=h.append(e)),l[0]){r=l[0]*Math.PI/180;let t=Math.cos(r),e=Math.sin(r);Math.abs(t)&lt;1e-16&amp;&amp;(t=0),Math.abs(e)&lt;1e-16&amp;&amp;(e=0),a=new g(t,e,-e,t,0,0),h=h.append(a)}else console.error(&quot;math.js: No argument to rotate transform!&quot;);3===l.length&amp;&amp;(e=new g(1,0,0,1,-l[1],-l[2]),h=h.append(e));break;case&quot;skewX&quot;:l[0]?(r=l[0]*Math.PI/180,n=Math.tan(r),o=new g(1,0,n,1,0,0),h=h.append(o)):console.error(&quot;math.js: No argument to skewX transform!&quot;);break;case&quot;skewY&quot;:l[0]?(r=l[0]*Math.PI/180,n=Math.tan(r),i=new g(1,n,0,1,0,0),h=h.append(i)):console.error(&quot;math.js: No argument to skewY transform!&quot;);break;case&quot;matrix&quot;:6===l.length?h=h.append(new g(...l)):console.error(&quot;math.js: Incorrect number of arguments for matrix!&quot;);break;default:console.error(&quot;mesh.js: Unhandled transform type: &quot;+d)}}),h},l=t=&gt;{let e=[],s=t.split(/[ ,]+/);for(let t=0,r=s.length-1;t&lt;r;t+=2)e.push(new x(parseFloat(s[t]),parseFloat(s[t+1])));return e},d=(t,e)=&gt;{for(let s in e)t.setAttribute(s,e[s])},c=(t,e,s,r,n)=&gt;{let o,i,a=[0,0,0,0];for(let h=0;h&lt;3;++h)e[h]&lt;t[h]&amp;&amp;e[h]&lt;s[h]||t[h]&lt;e[h]&amp;&amp;s[h]&lt;e[h]?a[h]=0:(a[h]=.5*((e[h]-t[h])/r+(s[h]-e[h])/n),o=Math.abs(3*(e[h]-t[h])/r),i=Math.abs(3*(s[h]-e[h])/n),a[h]&gt;o?a[h]=o:a[h]&gt;i&amp;&amp;(a[h]=i));return a},u=[[1,0,0,0,0,0,0,0,0,0,0,0,0,0,0,0],[0,0,0,0,1,0,0,0,0,0,0,0,0,0,0,0],[-3,3,0,0,-2,-1,0,0,0,0,0,0,0,0,0,0],[2,-2,0,0,1,1,0,0,0,0,0,0,0,0,0,0],[0,0,0,0,0,0,0,0,1,0,0,0,0,0,0,0],[0,0,0,0,0,0,0,0,0,0,0,0,1,0,0,0],[0,0,0,0,0,0,0,0,-3,3,0,0,-2,-1,0,0],[0,0,0,0,0,0,0,0,2,-2,0,0,1,1,0,0],[-3,0,3,0,0,0,0,0,-2,0,-1,0,0,0,0,0],[0,0,0,0,-3,0,3,0,0,0,0,0,-2,0,-1,0],[9,-9,-9,9,6,3,-6,-3,6,-6,3,-3,4,2,2,1],[-6,6,6,-6,-3,-3,3,3,-4,4,-2,2,-2,-2,-1,-1],[2,0,-2,0,0,0,0,0,1,0,1,0,0,0,0,0],[0,0,0,0,2,0,-2,0,0,0,0,0,1,0,1,0],[-6,6,6,-6,-4,-2,4,2,-3,3,-3,3,-2,-1,-2,-1],[4,-4,-4,4,2,2,-2,-2,2,-2,2,-2,1,1,1,1]],f=t=&gt;{let e=[];for(let s=0;s&lt;16;++s){e[s]=0;for(let r=0;r&lt;16;++r)e[s]+=u[s][r]*t[r]}return e},p=(t,e,s)=&gt;{const r=e*e,n=s*s,o=e*e*e,i=s*s*s;return t[0]+t[1]*e+t[2]*r+t[3]*o+t[4]*s+t[5]*s*e+t[6]*s*r+t[7]*s*o+t[8]*n+t[9]*n*e+t[10]*n*r+t[11]*n*o+t[12]*i+t[13]*i*e+t[14]*i*r+t[15]*i*o},y=t=&gt;{let e=[],s=[],r=[];for(let s=0;s&lt;4;++s)e[s]=[],e[s][0]=n(t[0][s],t[1][s],t[2][s],t[3][s]),e[s][1]=[],e[s][1].push(...n(...e[s][0][0])),e[s][1].push(...n(...e[s][0][1])),e[s][2]=[],e[s][2].push(...n(...e[s][1][0])),e[s][2].push(...n(...e[s][1][1])),e[s][2].push(...n(...e[s][1][2])),e[s][2].push(...n(...e[s][1][3]));for(let t=0;t&lt;8;++t){s[t]=[];for(let r=0;r&lt;4;++r)s[t][r]=[],s[t][r][0]=n(e[0][2][t][r],e[1][2][t][r],e[2][2][t][r],e[3][2][t][r]),s[t][r][1]=[],s[t][r][1].push(...n(...s[t][r][0][0])),s[t][r][1].push(...n(...s[t][r][0][1])),s[t][r][2]=[],s[t][r][2].push(...n(...s[t][r][1][0])),s[t][r][2].push(...n(...s[t][r][1][1])),s[t][r][2].push(...n(...s[t][r][1][2])),s[t][r][2].push(...n(...s[t][r][1][3]))}for(let t=0;t&lt;8;++t){r[t]=[];for(let e=0;e&lt;8;++e)r[t][e]=[],r[t][e][0]=s[t][0][2][e],r[t][e][1]=s[t][1][2][e],r[t][e][2]=s[t][2][2][e],r[t][e][3]=s[t][3][2][e]}return r};class x{constructor(t,e){this.x=t||0,this.y=e||0}toString(){return`(x=${this.x}, y=${this.y})`}clone(){return new x(this.x,this.y)}add(t){return new x(this.x+t.x,this.y+t.y)}scale(t){return void 0===t.x?new x(this.x*t,this.y*t):new x(this.x*t.x,this.y*t.y)}distSquared(t){let e=this.x-t.x,s=this.y-t.y;return e*e+s*s}transform(t){let e=this.x*t.a+this.y*t.c+t.e,s=this.x*t.b+this.y*t.d+t.f;return new x(e,s)}}class g{constructor(t,e,s,r,n,o){void 0===t?(this.a=1,this.b=0,this.c=0,this.d=1,this.e=0,this.f=0):(this.a=t,this.b=e,this.c=s,this.d=r,this.e=n,this.f=o)}toString(){return`affine: ${this.a} ${this.c} ${this.e} \n       ${this.b} ${this.d} ${this.f}`}append(t){t instanceof g||console.error(&quot;mesh.js: argument to Affine.append is not affine!&quot;);let e=this.a*t.a+this.c*t.b,s=this.b*t.a+this.d*t.b,r=this.a*t.c+this.c*t.d,n=this.b*t.c+this.d*t.d,o=this.a*t.e+this.c*t.f+this.e,i=this.b*t.e+this.d*t.f+this.f;return new g(e,s,r,n,o,i)}}class w{constructor(t,e){this.nodes=t,this.colors=e}paintCurve(t,e){if(o(this.nodes)&gt;r){const s=n(...this.nodes);let r=[[],[]],o=[[],[]];for(let t=0;t&lt;4;++t)r[0][t]=this.colors[0][t],r[1][t]=(this.colors[0][t]+this.colors[1][t])/2,o[0][t]=r[1][t],o[1][t]=this.colors[1][t];let i=new w(s[0],r),a=new w(s[1],o);i.paintCurve(t,e),a.paintCurve(t,e)}else{let s=Math.round(this.nodes[0].x);if(s&gt;=0&amp;&amp;s&lt;e){let r=4*(~~this.nodes[0].y*e+s);t[r]=Math.round(this.colors[0][0]),t[r+1]=Math.round(this.colors[0][1]),t[r+2]=Math.round(this.colors[0][2]),t[r+3]=Math.round(this.colors[0][3])}}}}class m{constructor(t,e){this.nodes=t,this.colors=e}split(){let t=[[],[],[],[]],e=[[],[],[],[]],s=[[[],[]],[[],[]]],r=[[[],[]],[[],[]]];for(let s=0;s&lt;4;++s){const r=n(this.nodes[0][s],this.nodes[1][s],this.nodes[2][s],this.nodes[3][s]);t[0][s]=r[0][0],t[1][s]=r[0][1],t[2][s]=r[0][2],t[3][s]=r[0][3],e[0][s]=r[1][0],e[1][s]=r[1][1],e[2][s]=r[1][2],e[3][s]=r[1][3]}for(let t=0;t&lt;4;++t)s[0][0][t]=this.colors[0][0][t],s[0][1][t]=this.colors[0][1][t],s[1][0][t]=(this.colors[0][0][t]+this.colors[1][0][t])/2,s[1][1][t]=(this.colors[0][1][t]+this.colors[1][1][t])/2,r[0][0][t]=s[1][0][t],r[0][1][t]=s[1][1][t],r[1][0][t]=this.colors[1][0][t],r[1][1][t]=this.colors[1][1][t];return[new m(t,s),new m(e,r)]}paint(t,e){let s,n=!1;for(let t=0;t&lt;4;++t)if((s=o([this.nodes[0][t],this.nodes[1][t],this.nodes[2][t],this.nodes[3][t]]))&gt;r){n=!0;break}if(n){let s=this.split();s[0].paint(t,e),s[1].paint(t,e)}else{new w([...this.nodes[0]],[...this.colors[0]]).paintCurve(t,e)}}}class b{constructor(t){this.readMesh(t),this.type=t.getAttribute(&quot;type&quot;)||&quot;bilinear&quot;}readMesh(t){let e=[[]],s=[[]],r=Number(t.getAttribute(&quot;x&quot;)),n=Number(t.getAttribute(&quot;y&quot;));e[0][0]=new x(r,n);let o=t.children;for(let t=0,r=o.length;t&lt;r;++t){e[3*t+1]=[],e[3*t+2]=[],e[3*t+3]=[],s[t+1]=[];let r=o[t].children;for(let n=0,o=r.length;n&lt;o;++n){let o=r[n].children;for(let r=0,i=o.length;r&lt;i;++r){let i=r;0!==t&amp;&amp;++i;let h,d=o[r].getAttribute(&quot;path&quot;),c=&quot;l&quot;;null!=d&amp;&amp;(c=(h=d.match(/\s*([lLcC])\s*(.*)/))[1]);let u=l(h[2]);switch(c){case&quot;l&quot;:0===i?(e[3*t][3*n+3]=u[0].add(e[3*t][3*n]),e[3*t][3*n+1]=a(e[3*t][3*n],e[3*t][3*n+3]),e[3*t][3*n+2]=a(e[3*t][3*n+3],e[3*t][3*n])):1===i?(e[3*t+3][3*n+3]=u[0].add(e[3*t][3*n+3]),e[3*t+1][3*n+3]=a(e[3*t][3*n+3],e[3*t+3][3*n+3]),e[3*t+2][3*n+3]=a(e[3*t+3][3*n+3],e[3*t][3*n+3])):2===i?(0===n&amp;&amp;(e[3*t+3][3*n+0]=u[0].add(e[3*t+3][3*n+3])),e[3*t+3][3*n+1]=a(e[3*t+3][3*n],e[3*t+3][3*n+3]),e[3*t+3][3*n+2]=a(e[3*t+3][3*n+3],e[3*t+3][3*n])):(e[3*t+1][3*n]=a(e[3*t][3*n],e[3*t+3][3*n]),e[3*t+2][3*n]=a(e[3*t+3][3*n],e[3*t][3*n]));break;case&quot;L&quot;:0===i?(e[3*t][3*n+3]=u[0],e[3*t][3*n+1]=a(e[3*t][3*n],e[3*t][3*n+3]),e[3*t][3*n+2]=a(e[3*t][3*n+3],e[3*t][3*n])):1===i?(e[3*t+3][3*n+3]=u[0],e[3*t+1][3*n+3]=a(e[3*t][3*n+3],e[3*t+3][3*n+3]),e[3*t+2][3*n+3]=a(e[3*t+3][3*n+3],e[3*t][3*n+3])):2===i?(0===n&amp;&amp;(e[3*t+3][3*n+0]=u[0]),e[3*t+3][3*n+1]=a(e[3*t+3][3*n],e[3*t+3][3*n+3]),e[3*t+3][3*n+2]=a(e[3*t+3][3*n+3],e[3*t+3][3*n])):(e[3*t+1][3*n]=a(e[3*t][3*n],e[3*t+3][3*n]),e[3*t+2][3*n]=a(e[3*t+3][3*n],e[3*t][3*n]));break;case&quot;c&quot;:0===i?(e[3*t][3*n+1]=u[0].add(e[3*t][3*n]),e[3*t][3*n+2]=u[1].add(e[3*t][3*n]),e[3*t][3*n+3]=u[2].add(e[3*t][3*n])):1===i?(e[3*t+1][3*n+3]=u[0].add(e[3*t][3*n+3]),e[3*t+2][3*n+3]=u[1].add(e[3*t][3*n+3]),e[3*t+3][3*n+3]=u[2].add(e[3*t][3*n+3])):2===i?(e[3*t+3][3*n+2]=u[0].add(e[3*t+3][3*n+3]),e[3*t+3][3*n+1]=u[1].add(e[3*t+3][3*n+3]),0===n&amp;&amp;(e[3*t+3][3*n+0]=u[2].add(e[3*t+3][3*n+3]))):(e[3*t+2][3*n]=u[0].add(e[3*t+3][3*n]),e[3*t+1][3*n]=u[1].add(e[3*t+3][3*n]));break;case&quot;C&quot;:0===i?(e[3*t][3*n+1]=u[0],e[3*t][3*n+2]=u[1],e[3*t][3*n+3]=u[2]):1===i?(e[3*t+1][3*n+3]=u[0],e[3*t+2][3*n+3]=u[1],e[3*t+3][3*n+3]=u[2]):2===i?(e[3*t+3][3*n+2]=u[0],e[3*t+3][3*n+1]=u[1],0===n&amp;&amp;(e[3*t+3][3*n+0]=u[2])):(e[3*t+2][3*n]=u[0],e[3*t+1][3*n]=u[1]);break;default:console.error(&quot;mesh.js: &quot;+c+&quot; invalid path type.&quot;)}if(0===t&amp;&amp;0===n||r&gt;0){let e=window.getComputedStyle(o[r]).stopColor.match(/^rgb\s*\(\s*(\d+)\s*,\s*(\d+)\s*,\s*(\d+)\s*\)$/i),a=window.getComputedStyle(o[r]).stopOpacity,h=255;a&amp;&amp;(h=Math.floor(255*a)),e&amp;&amp;(0===i?(s[t][n]=[],s[t][n][0]=Math.floor(e[1]),s[t][n][1]=Math.floor(e[2]),s[t][n][2]=Math.floor(e[3]),s[t][n][3]=h):1===i?(s[t][n+1]=[],s[t][n+1][0]=Math.floor(e[1]),s[t][n+1][1]=Math.floor(e[2]),s[t][n+1][2]=Math.floor(e[3]),s[t][n+1][3]=h):2===i?(s[t+1][n+1]=[],s[t+1][n+1][0]=Math.floor(e[1]),s[t+1][n+1][1]=Math.floor(e[2]),s[t+1][n+1][2]=Math.floor(e[3]),s[t+1][n+1][3]=h):3===i&amp;&amp;(s[t+1][n]=[],s[t+1][n][0]=Math.floor(e[1]),s[t+1][n][1]=Math.floor(e[2]),s[t+1][n][2]=Math.floor(e[3]),s[t+1][n][3]=h))}}e[3*t+1][3*n+1]=new x,e[3*t+1][3*n+2]=new x,e[3*t+2][3*n+1]=new x,e[3*t+2][3*n+2]=new x,e[3*t+1][3*n+1].x=(-4*e[3*t][3*n].x+6*(e[3*t][3*n+1].x+e[3*t+1][3*n].x)+-2*(e[3*t][3*n+3].x+e[3*t+3][3*n].x)+3*(e[3*t+3][3*n+1].x+e[3*t+1][3*n+3].x)+-1*e[3*t+3][3*n+3].x)/9,e[3*t+1][3*n+2].x=(-4*e[3*t][3*n+3].x+6*(e[3*t][3*n+2].x+e[3*t+1][3*n+3].x)+-2*(e[3*t][3*n].x+e[3*t+3][3*n+3].x)+3*(e[3*t+3][3*n+2].x+e[3*t+1][3*n].x)+-1*e[3*t+3][3*n].x)/9,e[3*t+2][3*n+1].x=(-4*e[3*t+3][3*n].x+6*(e[3*t+3][3*n+1].x+e[3*t+2][3*n].x)+-2*(e[3*t+3][3*n+3].x+e[3*t][3*n].x)+3*(e[3*t][3*n+1].x+e[3*t+2][3*n+3].x)+-1*e[3*t][3*n+3].x)/9,e[3*t+2][3*n+2].x=(-4*e[3*t+3][3*n+3].x+6*(e[3*t+3][3*n+2].x+e[3*t+2][3*n+3].x)+-2*(e[3*t+3][3*n].x+e[3*t][3*n+3].x)+3*(e[3*t][3*n+2].x+e[3*t+2][3*n].x)+-1*e[3*t][3*n].x)/9,e[3*t+1][3*n+1].y=(-4*e[3*t][3*n].y+6*(e[3*t][3*n+1].y+e[3*t+1][3*n].y)+-2*(e[3*t][3*n+3].y+e[3*t+3][3*n].y)+3*(e[3*t+3][3*n+1].y+e[3*t+1][3*n+3].y)+-1*e[3*t+3][3*n+3].y)/9,e[3*t+1][3*n+2].y=(-4*e[3*t][3*n+3].y+6*(e[3*t][3*n+2].y+e[3*t+1][3*n+3].y)+-2*(e[3*t][3*n].y+e[3*t+3][3*n+3].y)+3*(e[3*t+3][3*n+2].y+e[3*t+1][3*n].y)+-1*e[3*t+3][3*n].y)/9,e[3*t+2][3*n+1].y=(-4*e[3*t+3][3*n].y+6*(e[3*t+3][3*n+1].y+e[3*t+2][3*n].y)+-2*(e[3*t+3][3*n+3].y+e[3*t][3*n].y)+3*(e[3*t][3*n+1].y+e[3*t+2][3*n+3].y)+-1*e[3*t][3*n+3].y)/9,e[3*t+2][3*n+2].y=(-4*e[3*t+3][3*n+3].y+6*(e[3*t+3][3*n+2].y+e[3*t+2][3*n+3].y)+-2*(e[3*t+3][3*n].y+e[3*t][3*n+3].y)+3*(e[3*t][3*n+2].y+e[3*t+2][3*n].y)+-1*e[3*t][3*n].y)/9}}this.nodes=e,this.colors=s}paintMesh(t,e){let s=(this.nodes.length-1)/3,r=(this.nodes[0].length-1)/3;if(&quot;bilinear&quot;===this.type||s&lt;2||r&lt;2){let n;for(let o=0;o&lt;s;++o)for(let s=0;s&lt;r;++s){let r=[];for(let t=3*o,e=3*o+4;t&lt;e;++t)r.push(this.nodes[t].slice(3*s,3*s+4));let i=[];i.push(this.colors[o].slice(s,s+2)),i.push(this.colors[o+1].slice(s,s+2)),(n=new m(r,i)).paint(t,e)}}else{let n,o,a,h,l,d,u;const x=s,g=r;s++,r++;let w=new Array(s);for(let t=0;t&lt;s;++t){w[t]=new Array(r);for(let e=0;e&lt;r;++e)w[t][e]=[],w[t][e][0]=this.nodes[3*t][3*e],w[t][e][1]=this.colors[t][e]}for(let t=0;t&lt;s;++t)for(let e=0;e&lt;r;++e)0!==t&amp;&amp;t!==x&amp;&amp;(n=i(w[t-1][e][0],w[t][e][0]),o=i(w[t+1][e][0],w[t][e][0]),w[t][e][2]=c(w[t-1][e][1],w[t][e][1],w[t+1][e][1],n,o)),0!==e&amp;&amp;e!==g&amp;&amp;(n=i(w[t][e-1][0],w[t][e][0]),o=i(w[t][e+1][0],w[t][e][0]),w[t][e][3]=c(w[t][e-1][1],w[t][e][1],w[t][e+1][1],n,o));for(let t=0;t&lt;r;++t){w[0][t][2]=[],w[x][t][2]=[];for(let e=0;e&lt;4;++e)n=i(w[1][t][0],w[0][t][0]),o=i(w[x][t][0],w[x-1][t][0]),w[0][t][2][e]=n&gt;0?2*(w[1][t][1][e]-w[0][t][1][e])/n-w[1][t][2][e]:0,w[x][t][2][e]=o&gt;0?2*(w[x][t][1][e]-w[x-1][t][1][e])/o-w[x-1][t][2][e]:0}for(let t=0;t&lt;s;++t){w[t][0][3]=[],w[t][g][3]=[];for(let e=0;e&lt;4;++e)n=i(w[t][1][0],w[t][0][0]),o=i(w[t][g][0],w[t][g-1][0]),w[t][0][3][e]=n&gt;0?2*(w[t][1][1][e]-w[t][0][1][e])/n-w[t][1][3][e]:0,w[t][g][3][e]=o&gt;0?2*(w[t][g][1][e]-w[t][g-1][1][e])/o-w[t][g-1][3][e]:0}for(let s=0;s&lt;x;++s)for(let r=0;r&lt;g;++r){let n=i(w[s][r][0],w[s+1][r][0]),o=i(w[s][r+1][0],w[s+1][r+1][0]),c=i(w[s][r][0],w[s][r+1][0]),x=i(w[s+1][r][0],w[s+1][r+1][0]),g=[[],[],[],[]];for(let t=0;t&lt;4;++t){(d=[])[0]=w[s][r][1][t],d[1]=w[s+1][r][1][t],d[2]=w[s][r+1][1][t],d[3]=w[s+1][r+1][1][t],d[4]=w[s][r][2][t]*n,d[5]=w[s+1][r][2][t]*n,d[6]=w[s][r+1][2][t]*o,d[7]=w[s+1][r+1][2][t]*o,d[8]=w[s][r][3][t]*c,d[9]=w[s+1][r][3][t]*x,d[10]=w[s][r+1][3][t]*c,d[11]=w[s+1][r+1][3][t]*x,d[12]=0,d[13]=0,d[14]=0,d[15]=0,u=f(d);for(let e=0;e&lt;9;++e){g[t][e]=[];for(let s=0;s&lt;9;++s)g[t][e][s]=p(u,e/8,s/8),g[t][e][s]&gt;255?g[t][e][s]=255:g[t][e][s]&lt;0&amp;&amp;(g[t][e][s]=0)}}h=[];for(let t=3*s,e=3*s+4;t&lt;e;++t)h.push(this.nodes[t].slice(3*r,3*r+4));l=y(h);for(let s=0;s&lt;8;++s)for(let r=0;r&lt;8;++r)(a=new m(l[s][r],[[[g[0][s][r],g[1][s][r],g[2][s][r],g[3][s][r]],[g[0][s][r+1],g[1][s][r+1],g[2][s][r+1],g[3][s][r+1]]],[[g[0][s+1][r],g[1][s+1][r],g[2][s+1][r],g[3][s+1][r]],[g[0][s+1][r+1],g[1][s+1][r+1],g[2][s+1][r+1],g[3][s+1][r+1]]]])).paint(t,e)}}}transform(t){if(t instanceof x)for(let e=0,s=this.nodes.length;e&lt;s;++e)for(let s=0,r=this.nodes[0].length;s&lt;r;++s)this.nodes[e][s]=this.nodes[e][s].add(t);else if(t instanceof g)for(let e=0,s=this.nodes.length;e&lt;s;++e)for(let s=0,r=this.nodes[0].length;s&lt;r;++s)this.nodes[e][s]=this.nodes[e][s].transform(t)}scale(t){for(let e=0,s=this.nodes.length;e&lt;s;++e)for(let s=0,r=this.nodes[0].length;s&lt;r;++s)this.nodes[e][s]=this.nodes[e][s].scale(t)}}document.querySelectorAll(&quot;rect,circle,ellipse,path,text&quot;).forEach((r,n)=&gt;{let o=r.getAttribute(&quot;id&quot;);o||(o=&quot;patchjs_shape&quot;+n,r.setAttribute(&quot;id&quot;,o));const i=r.style.fill.match(/^url\(\s*&quot;?\s*#([^\s&quot;]+)&quot;?\s*\)/),a=r.style.stroke.match(/^url\(\s*&quot;?\s*#([^\s&quot;]+)&quot;?\s*\)/);if(i&amp;&amp;i[1]){const a=document.getElementById(i[1]);if(a&amp;&amp;&quot;meshgradient&quot;===a.nodeName){const i=r.getBBox();let l=document.createElementNS(s,&quot;canvas&quot;);d(l,{width:i.width,height:i.height});const c=l.getContext(&quot;2d&quot;);let u=c.createImageData(i.width,i.height);const f=new b(a);&quot;objectBoundingBox&quot;===a.getAttribute(&quot;gradientUnits&quot;)&amp;&amp;f.scale(new x(i.width,i.height));const p=a.getAttribute(&quot;gradientTransform&quot;);null!=p&amp;&amp;f.transform(h(p)),&quot;userSpaceOnUse&quot;===a.getAttribute(&quot;gradientUnits&quot;)&amp;&amp;f.transform(new x(-i.x,-i.y)),f.paintMesh(u.data,l.width),c.putImageData(u,0,0);const y=document.createElementNS(t,&quot;image&quot;);d(y,{width:i.width,height:i.height,x:i.x,y:i.y});let g=l.toDataURL();y.setAttributeNS(e,&quot;xlink:href&quot;,g),r.parentNode.insertBefore(y,r),r.style.fill=&quot;none&quot;;const w=document.createElementNS(t,&quot;use&quot;);w.setAttributeNS(e,&quot;xlink:href&quot;,&quot;#&quot;+o);const m=&quot;patchjs_clip&quot;+n,M=document.createElementNS(t,&quot;clipPath&quot;);M.setAttribute(&quot;id&quot;,m),M.appendChild(w),r.parentElement.insertBefore(M,r),y.setAttribute(&quot;clip-path&quot;,&quot;url(#&quot;+m+&quot;)&quot;),u=null,l=null,g=null}}if(a&amp;&amp;a[1]){const o=document.getElementById(a[1]);if(o&amp;&amp;&quot;meshgradient&quot;===o.nodeName){const i=parseFloat(r.style.strokeWidth.slice(0,-2))*(parseFloat(r.style.strokeMiterlimit)||parseFloat(r.getAttribute(&quot;stroke-miterlimit&quot;))||1),a=r.getBBox(),l=Math.trunc(a.width+i),c=Math.trunc(a.height+i),u=Math.trunc(a.x-i/2),f=Math.trunc(a.y-i/2);let p=document.createElementNS(s,&quot;canvas&quot;);d(p,{width:l,height:c});const y=p.getContext(&quot;2d&quot;);let g=y.createImageData(l,c);const w=new b(o);&quot;objectBoundingBox&quot;===o.getAttribute(&quot;gradientUnits&quot;)&amp;&amp;w.scale(new x(l,c));const m=o.getAttribute(&quot;gradientTransform&quot;);null!=m&amp;&amp;w.transform(h(m)),&quot;userSpaceOnUse&quot;===o.getAttribute(&quot;gradientUnits&quot;)&amp;&amp;w.transform(new x(-u,-f)),w.paintMesh(g.data,p.width),y.putImageData(g,0,0);const M=document.createElementNS(t,&quot;image&quot;);d(M,{width:l,height:c,x:0,y:0});let S=p.toDataURL();M.setAttributeNS(e,&quot;xlink:href&quot;,S);const k=&quot;pattern_clip&quot;+n,A=document.createElementNS(t,&quot;pattern&quot;);d(A,{id:k,patternUnits:&quot;userSpaceOnUse&quot;,width:l,height:c,x:u,y:f}),A.appendChild(M),o.parentNode.appendChild(A),r.style.stroke=&quot;url(#&quot;+k+&quot;)&quot;,g=null,p=null,S=null}}})}();
</script>
</svg>
